<svg xmlns="http://www.w3.org/2000/svg" viewBox="0 0 382.66 322.88"><defs><style>.cls-1{fill:#0f627c;}.cls-2{fill:#0d535e;}.cls-3{fill:#0a3742;}.cls-4{fill:#001930;}.cls-5{fill:#0b84a0;}.cls-6,.cls-7{fill:none;stroke:#0bd1e0;stroke-miterlimit:10;}.cls-6{stroke-width:3px;}.cls-7{stroke-width:2px;}</style></defs><g id="Layer_6" data-name="Layer 6"><path class="cls-1" d="M111.46,166.16c.52-5.23,5.23-12.15,10.41-14.14L359,61.28c5.27-2.16,11.92-1.79,11.91,7.09l-.19,149.9L479.3,180.92c2.83-1.07,3.47,1.9,1.93,3.49S381.39,287.13,378,290.3a29.64,29.64,0,0,1-11.06,6.13L110.55,380c-1.82-.89-2.41-4.37-2.41-4.37s-5.91-1.87-5.75-5.56S110.93,171.39,111.46,166.16Z" transform="translate(-100.89 -58.68)"/></g><g id="Layer_11" data-name="Layer 11"><polygon class="cls-2" points="378.7 124.36 270.54 227.39 266.87 228.42 265.09 232.66 245.8 240.1 7.66 316.63 9.98 321.6 269.93 236.36 274.98 233.57 288.74 219.79 379.82 126.39 378.7 124.36"/></g><g id="Layer_9" data-name="Layer 9"><polygon class="cls-3" points="268.97 160.07 377.54 122.72 380.95 124.77 270.64 226.88 267.1 228.84 268.74 224.83 268.97 160.07"/></g><g id="Layer_10" data-name="Layer 10"><polygon class="cls-4" points="268.81 187.91 323.13 169.98 268.63 222.11 268.81 187.91"/><polygon class="cls-2" points="302.52 148.58 268.46 179.74 269.28 159.26 302.52 148.58"/><path class="cls-4" d="M380.42,280.14l7.36-7.37a.42.42,0,0,1,.66.1l.91,1.64a.41.41,0,0,1-.06.49l-7.21,7.4a.42.42,0,0,1-.65-.07l-1.07-1.67A.41.41,0,0,1,380.42,280.14Z" transform="translate(-100.89 -58.68)"/><path class="cls-4" d="M393,268.83l4.24-4.38a.25.25,0,0,1,.39.07l.56,1a.24.24,0,0,1,0,.3l-4.15,4.4a.24.24,0,0,1-.38-.05l-.66-1A.27.27,0,0,1,393,268.83Z" transform="translate(-100.89 -58.68)"/></g><g id="Layer_7" data-name="Layer 7"><path class="cls-5" d="M370.55,119.14l-2,168.06-4.66,5.19-12.27,5.28L231.5,336.11c34.12-16.63,51.12-26.43,79.41-50.85s29.59-35.79,36.91-56.19S370.8,149.8,370.55,119.14Z" transform="translate(-100.89 -58.68)"/><path class="cls-2" d="M102.88,365.08S120,195.9,122,183s4.47-17.31,10.55-21.43S217.88,131,304.65,92.05C341.16,75.62,362,60.17,362,60.17l-240.42,91.9-7.6,6.87-2.85,9.95Z" transform="translate(-100.89 -58.68)"/></g><g id="Layer_8" data-name="Layer 8"><ellipse class="cls-4" cx="222.67" cy="136.21" rx="5.52" ry="6.7" transform="translate(-115.61 -31.01) rotate(-6.88)"/><ellipse class="cls-3" cx="221.79" cy="136.7" rx="5.52" ry="6.7" transform="translate(-115.68 -31.11) rotate(-6.88)"/></g><g id="Layer_2" data-name="Layer 2"><path class="cls-6" d="M111.46,166.16c.52-5.23,5.23-12.15,10.41-14.14L359,61.28c5.27-2.16,11.92-1.79,11.91,7.09l-.19,149.9L479.3,180.92c2.83-1.07,3.47,1.9,1.93,3.49S381.39,287.13,378,290.3a29.64,29.64,0,0,1-11.06,6.13L110.55,380c-1.82-.89-2.41-4.37-2.41-4.37s-5.91-1.87-5.75-5.56S110.93,171.39,111.46,166.16Z" transform="translate(-100.89 -58.68)"/></g><g id="Layer_4" data-name="Layer 4"><path class="cls-7" d="M371,77.2s-1.71,203-1.95,206.64-3.59,8.91-8.29,10.42L108.18,375.43" transform="translate(-100.89 -58.68)"/></g><g id="Layer_5" data-name="Layer 5"><path class="cls-7" d="M368.33,286.77s3.2-.51,4.8-2.66,106.67-100.68,108-101.93" transform="translate(-100.89 -58.68)"/></g></svg>