<svg xmlns="http://www.w3.org/2000/svg" viewBox="0 0 248.71 383.44"><defs><style>.cls-1{fill:#0b3d59;}.cls-2{fill:#0f627c;}.cls-3{fill:#031d21;}.cls-4{fill:#001930;}.cls-5{fill:#0a3742;}.cls-6{fill:#00b6ba;}.cls-7{fill:#0b84a0;}.cls-8{fill:#0f5a6b;}.cls-10,.cls-9{fill:none;stroke:#0bd1e0;stroke-miterlimit:10;}.cls-9{stroke-width:2px;}.cls-10{stroke-width:3px;}</style></defs><g id="Layer_8" data-name="Layer 8"><polygon class="cls-1" points="224.75 381.52 247.21 360.13 172.89 53.02 162.04 41.17 145.45 31.59 33.45 2.56 20.84 2.56 4.45 16.95 1.75 25.82 64.07 331.03 75.7 347.63 85.88 356.28 97.5 360.86 213.95 381.52 224.75 381.52"/></g><g id="Layer_9" data-name="Layer 9"><path class="cls-2" d="M160.36,74.81c-10.86,0-14.63,6.42-14.63,14.63s63.19,301.28,63.19,301.28c4,13.52,16.25,27.56,27.93,29.71s118.61,22.83,128.36,22.83,15.3-9.09,15.3-16S311.78,144.64,308.68,132s-22.06-25.09-29.93-27.27S171.23,74.81,160.36,74.81Z" transform="translate(-133.3 -72.25)"/></g><g id="Camera_Circles" data-name="Camera Circles"><ellipse class="cls-3" cx="186.23" cy="148.18" rx="7.23" ry="10.52" transform="translate(-185.01 80.58) rotate(-39.63)"/><ellipse class="cls-4" cx="179.41" cy="114.38" rx="12.67" ry="18.64" transform="translate(-165.02 68.46) rotate(-39.63)"/><ellipse class="cls-5" cx="180.59" cy="113.08" rx="11.58" ry="18.64" transform="translate(-163.92 68.92) rotate(-39.63)"/><ellipse class="cls-6" cx="208.66" cy="115.14" rx="4.08" ry="7.25" transform="translate(-158.79 87.29) rotate(-39.63)"/><ellipse class="cls-5" cx="186.93" cy="147.59" rx="6.54" ry="10.52" transform="translate(-184.48 80.89) rotate(-39.63)"/></g><g id="Layer_12" data-name="Layer 12"><path class="cls-4" d="M287.76,435.42l-.84,1.54a1,1,0,0,0,.67,1.38l17.11,3a1,1,0,0,0,1-.53l.67-1.4a.94.94,0,0,0-.68-1.33l-16.94-3.1A1,1,0,0,0,287.76,435.42Z" transform="translate(-133.3 -72.25)"/><ellipse class="cls-4" cx="247.29" cy="429.1" rx="1.76" ry="1.51" transform="translate(-379.62 397.28) rotate(-64.73)"/><ellipse class="cls-4" cx="255.67" cy="430.55" rx="1.76" ry="1.51" transform="translate(-376.13 405.69) rotate(-64.73)"/><ellipse class="cls-4" cx="333" cy="444.62" rx="3.04" ry="2.61" transform="translate(-344.53 483.68) rotate(-64.73)"/></g><g id="Layer_11" data-name="Layer 11"><polygon class="cls-7" points="12.43 8.84 1.75 20.61 1.75 25.6 13.43 84.46 17.75 48.21 12.76 19.28 12.43 8.84"/><path class="cls-7" d="M305.16,123,287,107.63,252.37,96.74l-34.59-8.87a223.61,223.61,0,0,1,56.54,39.24c21.72,20.48,56.53,97.32,56.53,97.32l-21.29-87.79Z" transform="translate(-133.3 -72.25)"/><path class="cls-7" d="M206.86,380.26c-5.43,8.13-7.26,13.05-9.49,23L209,419.88l14.19,10.23s4.6,1.95,6.05,1.95,5.61-9.82,5.61-12l-13-8.31-6.65-9.32-6.31-12.63Z" transform="translate(-133.3 -72.25)"/><path class="cls-8" d="M189.34,298.59s24,65.51,51.94,91.23,62.2,42.24,62.2,42.24L228,416.86l-12.75-14.41-6.31-12.63Z" transform="translate(-133.3 -72.25)"/><path class="cls-4" d="M373.4,441.31l-6.86,8.14-11.31,4.88-8-.56c8,.56,15.08-11.41,15.08-11.41Z" transform="translate(-133.3 -72.25)"/></g><g id="Layer_7" data-name="Layer 7"><path class="cls-9" d="M160.36,73.9c-10.86,0-14.63,6.43-14.63,14.64s63.19,301.28,63.19,301.28c4,13.52,16.25,27.56,27.93,29.71s118.61,22.83,128.36,22.83,15.3-9.09,15.3-16-68.73-282.66-71.83-295.3S286.62,106,278.75,103.83,171.23,73.9,160.36,73.9Z" transform="translate(-133.3 -72.25)"/></g><g id="Layer_13" data-name="Layer 13"><path class="cls-10" d="M380.51,426.4c-2.16,11.8-13.35,22.15-16.65,24.62s-7,3.16-13.28,3.16-123.21-21.71-123.21-21.71c-12.47-2.58-28.65-22-30.43-30.68l-61.85-301c-.83-3.33.15-9.16,2.66-11.64s9.69-9.81,12-11.89,6.67-4.15,10.57-3.41l118.39,29.93c12.8,4.16,27.34,17.15,29.93,27.27C308.68,131.1,381.17,414.43,380.51,426.4Z" transform="translate(-133.3 -72.25)"/></g></svg>