<svg xmlns="http://www.w3.org/2000/svg" viewBox="0 0 258.98 391.96"><defs><style>.cls-1{fill:#0f627c;}.cls-2{fill:#001930;}.cls-3{fill:#0a3742;}.cls-4{fill:#0a8ba0;}.cls-5{fill:#06bacc;}.cls-6,.cls-7{fill:none;stroke:#0bd1e0;stroke-miterlimit:10;}.cls-6{stroke-width:2px;}.cls-7{stroke-width:3px;}</style></defs><g id="Layer_6" data-name="Layer 6"><path class="cls-1" d="M372.08,299.37C370.2,311,356,332,354.79,341.93s-11.92,43.07-16,53.21-25.45,13.19-29.27,18.62S283.07,451.67,279.41,455a19.11,19.11,0,0,1-12.63,5.32c-4.49,0-40.79-15.52-57.86-19.07s-41.68-6.43-47-9.31-9.87-8.54-13.75-21.73C143.41,392.59,144,330,146,328.63l4.44-3.1s-3-1.67-4.44-2.66,1.45-22.06-4.43-46.56c-10.2-35.58-10.54-70.29-6.65-83.8,8.87-30.82,30.12-63.29,57.42-77.54,11.64-11.75,42.45-24.72,43.34-25.27s5-.28,5-.28-.94-4.54,0-6.2,12.14-7.32,15.74-8.65,11.53-5.16,18.62-2,82.42,21,102.87,23.06c4.65.89,6.43,5.15,8.86,13.08s2.17,34.58.89,46.78S369.92,252.26,369,260.35,374,287.73,372.08,299.37Z" transform="translate(-131.08 -69.85)"/></g><g id="Layer_11" data-name="Layer 11"><path class="cls-2" d="M364.94,317.73c-13.92,15.11-21.54,71.78-28.81,81.36s-25.07,10-26.57,14.67-18.52,18.76-32,31.09c-2.46,2.25-4.91,2.85-7.13,1.53s-3.68-6-3.68-13,4.32-61,11.14-78.48c7-6,8.64-14.13,16.79-24.27s24.11-26.74,25.94-27.61c3.66-.33,26.15-25.94,27.84-28.76,24.87-41.4,17.05-54.87,20.71-63.68,2-1.17,2.33-1.5,3-3.33s-4.32-33.08-4.32-35.25-6.15-4.65-6.15-4.65-4-39.24-.83-37.91c6.32-13,8.64-16.63,16.62-14.63s6.73,9.29,6,22.61-1.33,50.38-3.33,59.52l-2.32,11.53-10.64,57.37,4,34.86Z" transform="translate(-131.08 -69.85)"/></g><g id="Layer_15" data-name="Layer 15"><path class="cls-3" d="M265.47,358.78s-10.89,48.72-10.89,78.15c0,14.19,3.17,20.85,7,21.6l8.62,1.68,6.12-2.36,5.66-4.69,28.6-39.51s19.58-43.26,11.75-31.26L291.1,430.28l-12.47,14.46-7.13,1.53-3.68-8.34,3.41-43.27L279,354.79Z" transform="translate(-131.08 -69.85)"/><path class="cls-3" d="M355.57,114.3c2.49-12.63,17.12-18.64,17.12-18.64l9,1.69L385,104l3.56,16.13v33.92L383,179.65,382,171l2.05-48.22-3.43-6.66-5.6-1.66-6.32,1.83-7.81,13.14-2.66-11.64Z" transform="translate(-131.08 -69.85)"/></g><g id="Layer_14" data-name="Layer 14"><path class="cls-2" d="M260.57,345s-8.45,12.35-6.83,14.16,9.82,2.95,11.43,2.95,10.14-5.48,10.14-5.48l-6.32.67-4.71-1.94-3.71-1.5Z" transform="translate(-131.08 -69.85)"/><path class="cls-2" d="M145.29,330.74s7.85,3.32,8.84,2.1-.42-6.43-.42-6.43l-4-.41Z" transform="translate(-131.08 -69.85)"/><path class="cls-2" d="M213.57,308.46l21.06,2.43L257,308.46l19.61-5.1,4.38,6.2L273.87,324s-43.23,7.51-64.73,2.54S179,313,171.67,308.46,154.6,293.6,154.6,293.6v-8.2l4.43-5.76Z" transform="translate(-131.08 -69.85)"/><path class="cls-2" d="M240.84,85s6.32.72,7,2.66-2.75,3.66-2.75,3.66l-4.9-1.72Z" transform="translate(-131.08 -69.85)"/><path class="cls-2" d="M323.76,122s15.3,7.31,18.29,7.81,1.59-20.62,4.82-21.45,10.05,2.77,10.05,2.77l-13.71,34.48-7.15-10.48L328.15,127Z" transform="translate(-131.08 -69.85)"/><path class="cls-1" d="M332.21,353.34s1.82-9.22-6-9.44-35-7.17-35-7.17l-3.67,6,19,5.86Z" transform="translate(-131.08 -69.85)"/></g><g id="Layer_12" data-name="Layer 12"><polygon class="cls-4" points="145.33 233.22 147.28 238.38 146.3 242.58 134.81 263.43 128.96 279.62 129.49 283.83 133.26 285.38 136.81 287.15 140.81 287.15 144.13 285.82 148.88 283.09 153.63 276.49 164.52 258.78 184.7 237.49 189.57 233.17 202.36 221.72 217.42 204.41 231.06 177.09 236.67 151.66 238.13 140.72 241.12 137.4 236.79 102.15 230.64 97.49 228.84 61.42 227.26 48.61 222.36 44.44 217.73 43.8 213.74 47.95 211.74 58.59 211.08 66.12 208.64 70.34 217.91 87.64 224.53 112.27 224.83 134.66 217.03 165.48 198.47 195.98 170.14 220.86 151.89 229.96 145.33 233.22"/><polygon class="cls-4" points="2.69 161.67 31.28 206.24 24.63 215.21 23.64 222.53 23.3 256.65 14.88 253.01 13.99 226.85 10.45 206.46 4.68 183.62 2.69 161.67"/><polygon class="cls-4" points="63.21 41.63 104.55 19.85 112.42 21.01 112.42 23.32 99.24 30.74 75.62 38.63 64.76 43.8 63.21 41.63"/></g><g id="Layer_17" data-name="Layer 17"><path class="cls-2" d="M342.38,271s.77-5.15-1.11-5.15a4.35,4.35,0,0,0-2.88.94s-24.83,24.5-26.16,26.16a5.91,5.91,0,0,0-.89,5.32,7.5,7.5,0,0,0,3.74,3.77c1.18.35,4.78.85,4.78.85Z" transform="translate(-131.08 -69.85)"/><path class="cls-2" d="M361.72,167.35s-2.69-.33-4,1.49,4,34.59,4,36.92,3.82,6,3.82,6,4.57-.58,5.61-2.53-4.19-6.78-4.19-6.78l-5.24-35.08" transform="translate(-131.08 -69.85)"/></g><g id="Layer_13" data-name="Layer 13"><path class="cls-5" d="M268.11,355.57s12-43.15,36.91-61.52a152.66,152.66,0,0,0,44.73-50.88c7.48-13.47,6.65-47.39,6.65-47.39s-2.33,35.62-11.14,45.06c-4,13.8-31.26,40.57-31.26,40.57l-19.62,13.47-17.79,8.48,1.76,5.65-.76,3.66-2.83,3.49-10.31,19.95L260,350.25l.54,3.65,3.71,1.5Z" transform="translate(-131.08 -69.85)"/><path class="cls-5" d="M153.71,326.41c2-6.43-3.76-40.71-3.76-45.73s3.76-6.36,3.76-6.36l-7.53-12.62-8.65-19.53-4.21-8.87L136,253.7l6.65,27.93,2.59,21.73-.15,19.06Z" transform="translate(-131.08 -69.85)"/><polyline class="cls-3" points="230.64 97.49 234.47 133.74 238.13 140.72 241.12 137.4 236.79 102.15 230.64 97.49"/><path class="cls-3" d="M320.65,303a7.78,7.78,0,0,1-2.66-.83c-1.16-.66-4.32-2.82-4.32-4.65s1.83-3.66,1.83-3.66l24.6-24.94a5.26,5.26,0,0,1,4.16,0c2,1,3.19,6.73,3.19,6.73l-23.24,25L320.65,303" transform="translate(-131.08 -69.85)"/></g><g id="Layer_7" data-name="Layer 7"><ellipse class="cls-4" cx="245.07" cy="204.52" rx="114.24" ry="102.86" transform="translate(-201.56 86.56) rotate(-31.18)"/></g><g id="Layer_16" data-name="Layer 16"><ellipse class="cls-3" cx="244.21" cy="202.43" rx="112.05" ry="100.89" transform="translate(-200.6 85.82) rotate(-31.18)"/></g><g id="Layer_2" data-name="Layer 2"><path class="cls-6" d="M287.47,343c4.08,3.13,40.66,10.94,43.65,10.61s-1,10.64-2.49,15.3-37.59,63.65-51,76c-2.46,2.25-4.91,2.85-7.13,1.53s-3.68-6-3.68-13,4.32-61,11.14-78.48c7-6,8.64-14.13,16.79-24.27s24.11-26.74,25.94-27.61c3.66-.33,26.15-25.94,27.84-28.76,24.87-41.4,17.05-54.87,20.71-63.68,2-1.17,2.33-1.5,3-3.33s-4.32-33.08-4.32-35.25-6.15-4.65-6.15-4.65-4-39.24-.83-37.91c6.32-13,8.64-16.63,16.62-14.63s6.73,9.29,6,22.61-1.33,50.38-3.33,59.52" transform="translate(-131.08 -69.85)"/></g><g id="Outside_Outline" data-name="Outside Outline"><path class="cls-7" d="M372.08,299.37C370.2,311,356,332,354.79,341.93s-11.92,43.07-16,53.21-25.45,13.19-29.27,18.62S283.07,451.67,279.41,455a19.11,19.11,0,0,1-12.63,5.32c-4.49,0-40.79-15.52-57.86-19.07s-41.68-6.43-47-9.31-9.87-8.54-13.75-21.73C143.41,392.59,144,330,146,328.63l4.44-3.1s-3-1.67-4.44-2.66,1.45-22.06-4.43-46.56c-10.2-35.58-10.54-70.29-6.65-83.8,8.87-30.82,30.12-63.29,57.42-77.54,11.64-11.75,42.45-24.72,43.34-25.27s5-.28,5-.28-.94-4.54,0-6.2,12.14-7.32,15.74-8.65,11.53-5.16,18.62-2,82.42,21,102.87,23.06c4.65.89,6.43,5.15,8.86,13.08s2.17,34.58.89,46.78S369.92,252.26,369,260.35,374,287.73,372.08,299.37Z" transform="translate(-131.08 -69.85)"/></g><g id="Layer_5" data-name="Layer 5"><ellipse class="cls-6" cx="245.07" cy="204.52" rx="114.24" ry="102.86" transform="translate(-201.56 86.56) rotate(-31.18)"/></g><g id="Layer_9" data-name="Layer 9"><path class="cls-6" d="M276.59,303.36s3,2.77,1.16,8.64c-4.76,5.1-20.84,37.8-17.18,41.57,2.11,1.77,2.65,1.29,4.88,2.16,1.83.72,2,1.17,3.71,1.67s8.59-2.67,8.59-2.67" transform="translate(-131.08 -69.85)"/><path class="cls-6" d="M339.72,140.19s.44,0,2-2.44-.44-20,6.21-23.45c3.54-1.82,7.09.62,9.31,2.39s2.69,14.58,2.69,14.58" transform="translate(-131.08 -69.85)"/><path class="cls-6" d="M240.17,89.64s4.39.74,4.9,2-16.87,10-16.87,10" transform="translate(-131.08 -69.85)"/><path class="cls-6" d="M159,279.64s-3.1,3.93-4,7.31,0,37.69-1.1,39.24-7.76-3.1-7.76-3.1" transform="translate(-131.08 -69.85)"/></g></svg>